<svg id="svg" version="1.1" xmlns="http://www.w3.org/2000/svg" xmlns:xlink="http://www.w3.org/1999/xlink" width="400" height="400" viewBox="0, 0, 400,400"><g id="svgg"><path id="path0" d="M188.300 0.289 C 189.015 0.378,190.185 0.378,190.900 0.289 C 191.615 0.201,191.030 0.128,189.600 0.128 C 188.170 0.128,187.585 0.201,188.300 0.289 M209.100 0.289 C 209.815 0.378,210.985 0.378,211.700 0.289 C 212.415 0.201,211.830 0.128,210.400 0.128 C 208.970 0.128,208.385 0.201,209.100 0.289 M182.705 0.683 C 183.202 0.779,183.922 0.775,184.305 0.675 C 184.687 0.575,184.280 0.496,183.400 0.501 C 182.520 0.505,182.207 0.587,182.705 0.683 M215.905 0.683 C 216.402 0.779,217.122 0.775,217.505 0.675 C 217.887 0.575,217.480 0.496,216.600 0.501 C 215.720 0.505,215.407 0.587,215.905 0.683 M178.100 1.076 C 178.485 1.176,179.115 1.176,179.500 1.076 C 179.885 0.975,179.570 0.893,178.800 0.893 C 178.030 0.893,177.715 0.975,178.100 1.076 M220.500 1.076 C 220.885 1.176,221.515 1.176,221.900 1.076 C 222.285 0.975,221.970 0.893,221.200 0.893 C 220.430 0.893,220.115 0.975,220.500 1.076 M174.500 1.476 C 174.885 1.576,175.515 1.576,175.900 1.476 C 176.285 1.375,175.970 1.293,175.200 1.293 C 174.430 1.293,174.115 1.375,174.500 1.476 M224.100 1.476 C 224.485 1.576,225.115 1.576,225.500 1.476 C 225.885 1.375,225.570 1.293,224.800 1.293 C 224.030 1.293,223.715 1.375,224.100 1.476 M244.000 4.800 C 244.550 4.976,245.360 5.120,245.800 5.120 C 246.433 5.120,246.392 5.054,245.600 4.800 C 245.050 4.624,244.240 4.480,243.800 4.480 C 243.167 4.480,243.208 4.546,244.000 4.800 M152.800 5.200 C 152.008 5.454,151.967 5.520,152.600 5.520 C 153.040 5.520,153.850 5.376,154.400 5.200 C 155.192 4.946,155.233 4.880,154.600 4.880 C 154.160 4.880,153.350 5.024,152.800 5.200 M146.600 6.800 C 146.096 7.017,146.022 7.144,146.400 7.144 C 146.730 7.144,147.360 6.989,147.800 6.800 C 148.304 6.583,148.378 6.456,148.000 6.456 C 147.670 6.456,147.040 6.611,146.600 6.800 M141.100 8.276 C 140.715 8.376,140.400 8.616,140.400 8.809 C 140.400 9.001,140.940 8.970,141.600 8.740 C 143.400 8.113,143.032 7.771,141.100 8.276 M136.200 9.825 C 129.735 12.054,127.600 12.901,127.600 13.235 C 127.600 13.543,129.970 12.799,133.200 11.476 C 133.750 11.251,134.335 11.029,134.500 10.984 C 134.665 10.938,134.890 10.855,135.000 10.800 C 135.110 10.745,135.380 10.655,135.600 10.600 C 135.820 10.545,136.090 10.455,136.200 10.400 C 136.310 10.345,136.580 10.255,136.800 10.200 C 137.020 10.145,137.290 10.055,137.400 10.000 C 137.510 9.945,137.780 9.855,138.000 9.800 C 138.220 9.745,138.490 9.655,138.600 9.600 C 138.710 9.545,138.965 9.478,139.167 9.450 C 139.368 9.422,139.668 9.265,139.833 9.100 C 140.357 8.576,139.086 8.830,136.200 9.825 M260.167 9.100 C 260.332 9.265,260.632 9.422,260.833 9.450 C 261.035 9.478,261.290 9.545,261.400 9.600 C 261.510 9.655,261.780 9.745,262.000 9.800 C 262.220 9.855,262.490 9.945,262.600 10.000 C 262.710 10.055,262.980 10.145,263.200 10.200 C 263.420 10.255,263.690 10.345,263.800 10.400 C 263.910 10.455,264.180 10.545,264.400 10.600 C 264.620 10.655,264.890 10.745,265.000 10.800 C 265.110 10.855,265.335 10.938,265.500 10.985 C 265.665 11.031,266.160 11.215,266.600 11.394 C 270.575 13.006,270.400 12.958,270.400 12.433 C 270.400 12.231,268.195 11.331,265.499 10.433 C 260.558 8.786,259.618 8.551,260.167 9.100 M270.800 12.753 C 270.800 12.948,271.115 13.197,271.500 13.308 C 271.885 13.419,272.515 13.639,272.900 13.797 C 273.295 13.960,273.600 13.909,273.600 13.682 C 273.600 13.460,273.033 13.081,272.340 12.839 C 270.821 12.310,270.800 12.308,270.800 12.753 M125.100 13.863 C 122.970 14.747,123.232 15.298,125.400 14.495 C 126.390 14.128,127.200 13.686,127.200 13.514 C 127.200 13.082,126.839 13.142,125.100 13.863 M274.000 13.961 C 274.000 14.159,274.540 14.510,275.200 14.740 C 276.659 15.249,276.803 14.712,275.381 14.064 C 274.155 13.505,274.000 13.494,274.000 13.961 M122.100 15.065 C 121.281 15.395,121.533 15.943,122.400 15.716 C 122.840 15.601,123.200 15.348,123.200 15.153 C 123.200 14.772,122.888 14.747,122.100 15.065 M276.800 15.153 C 276.800 15.348,277.160 15.601,277.600 15.716 C 278.545 15.963,278.686 15.395,277.767 15.043 C 276.928 14.721,276.800 14.735,276.800 15.153 M117.600 16.943 C 113.944 18.554,111.866 19.615,111.600 20.005 C 111.490 20.166,110.050 20.972,108.400 21.795 C 103.953 24.014,100.335 26.069,100.531 26.264 C 100.626 26.359,101.670 25.862,102.852 25.160 C 104.033 24.458,107.700 22.568,111.000 20.959 C 114.300 19.351,117.180 17.882,117.400 17.695 C 117.620 17.508,117.980 17.319,118.200 17.276 C 119.531 17.011,121.200 16.284,121.200 15.969 C 121.200 15.414,120.861 15.506,117.600 16.943 M278.800 15.891 C 278.800 16.081,280.375 16.914,282.300 17.743 C 284.225 18.573,288.226 20.489,291.191 22.001 C 294.156 23.514,296.647 24.687,296.726 24.607 C 297.000 24.333,281.714 16.448,279.700 15.825 C 279.205 15.671,278.800 15.701,278.800 15.891 M196.100 16.298 C 198.245 16.370,201.755 16.370,203.900 16.298 C 206.045 16.226,204.290 16.167,200.000 16.167 C 195.710 16.167,193.955 16.226,196.100 16.298 M186.505 16.687 C 187.114 16.779,188.014 16.777,188.505 16.682 C 188.997 16.587,188.500 16.511,187.400 16.514 C 186.300 16.517,185.897 16.595,186.505 16.687 M211.705 16.687 C 212.314 16.779,213.214 16.777,213.705 16.682 C 214.197 16.587,213.700 16.511,212.600 16.514 C 211.500 16.517,211.097 16.595,211.705 16.687 M181.905 17.083 C 182.402 17.179,183.122 17.175,183.505 17.075 C 183.887 16.975,183.480 16.896,182.600 16.901 C 181.720 16.905,181.407 16.987,181.905 17.083 M216.700 17.082 C 217.195 17.178,218.005 17.178,218.500 17.082 C 218.995 16.987,218.590 16.909,217.600 16.909 C 216.610 16.909,216.205 16.987,216.700 17.082 M177.700 17.476 C 178.085 17.576,178.715 17.576,179.100 17.476 C 179.485 17.375,179.170 17.293,178.400 17.293 C 177.630 17.293,177.315 17.375,177.700 17.476 M220.900 17.476 C 221.285 17.576,221.915 17.576,222.300 17.476 C 222.685 17.375,222.370 17.293,221.600 17.293 C 220.830 17.293,220.515 17.375,220.900 17.476 M161.700 19.882 C 161.205 19.978,160.800 20.246,160.800 20.478 C 160.800 20.737,161.282 20.804,162.050 20.650 C 162.738 20.513,163.458 20.400,163.650 20.400 C 163.843 20.400,164.000 20.220,164.000 20.000 C 164.000 19.597,163.354 19.564,161.700 19.882 M236.000 20.000 C 236.000 20.220,236.360 20.400,236.800 20.400 C 237.240 20.400,237.600 20.220,237.600 20.000 C 237.600 19.780,237.240 19.600,236.800 19.600 C 236.360 19.600,236.000 19.780,236.000 20.000 M158.800 20.800 C 158.800 21.020,159.059 21.200,159.376 21.200 C 159.693 21.200,160.064 21.020,160.200 20.800 C 160.336 20.580,160.077 20.400,159.624 20.400 C 159.171 20.400,158.800 20.580,158.800 20.800 M240.000 20.800 C 240.000 21.020,240.270 21.200,240.600 21.200 C 240.930 21.200,241.200 21.020,241.200 20.800 C 241.200 20.580,240.930 20.400,240.600 20.400 C 240.270 20.400,240.000 20.580,240.000 20.800 M243.600 21.600 C 243.600 21.820,243.870 22.000,244.200 22.000 C 244.530 22.000,244.800 21.820,244.800 21.600 C 244.800 21.380,244.530 21.200,244.200 21.200 C 243.870 21.200,243.600 21.380,243.600 21.600 M245.200 22.000 C 245.200 22.220,245.470 22.400,245.800 22.400 C 246.130 22.400,246.400 22.220,246.400 22.000 C 246.400 21.780,246.130 21.600,245.800 21.600 C 245.470 21.600,245.200 21.780,245.200 22.000 M246.800 22.349 C 246.800 22.771,248.787 23.346,249.114 23.019 C 249.420 22.713,249.168 22.553,247.900 22.249 C 247.295 22.104,246.800 22.149,246.800 22.349 M150.800 22.800 C 150.800 23.020,151.070 23.200,151.400 23.200 C 151.730 23.200,152.000 23.020,152.000 22.800 C 152.000 22.580,151.730 22.400,151.400 22.400 C 151.070 22.400,150.800 22.580,150.800 22.800 M148.700 23.076 C 148.315 23.176,148.000 23.446,148.000 23.676 C 148.000 23.914,148.388 23.989,148.900 23.852 C 149.395 23.719,149.935 23.608,150.100 23.605 C 150.265 23.602,150.400 23.420,150.400 23.200 C 150.400 22.789,149.928 22.755,148.700 23.076 M249.600 23.200 C 249.600 23.420,249.870 23.600,250.200 23.600 C 250.530 23.600,250.800 23.420,250.800 23.200 C 250.800 22.980,250.530 22.800,250.200 22.800 C 249.870 22.800,249.600 22.980,249.600 23.200 M251.200 23.484 C 251.200 23.795,254.913 25.200,255.735 25.200 C 256.707 25.200,255.695 24.418,254.252 24.055 C 253.290 23.813,252.210 23.502,251.852 23.364 C 251.493 23.227,251.200 23.281,251.200 23.484 M144.900 24.283 C 143.165 24.795,142.043 25.600,143.065 25.600 C 143.825 25.600,147.600 24.207,147.600 23.927 C 147.600 23.513,147.446 23.533,144.900 24.283 M256.634 25.099 C 256.481 25.252,257.297 25.696,258.446 26.087 C 259.596 26.478,260.625 26.708,260.735 26.599 C 261.040 26.293,260.648 26.036,259.576 25.839 C 259.039 25.740,258.555 25.624,258.500 25.580 C 258.445 25.536,258.265 25.475,258.100 25.444 C 257.935 25.413,257.600 25.260,257.356 25.105 C 257.111 24.949,256.787 24.947,256.634 25.099 M298.000 25.567 C 298.963 26.352,299.600 26.608,299.600 26.210 C 299.600 26.106,299.015 25.735,298.300 25.386 L 297.000 24.752 298.000 25.567 M140.500 25.722 C 139.785 25.939,139.200 26.270,139.200 26.458 C 139.200 26.929,139.979 26.858,141.385 26.258 C 142.897 25.613,142.218 25.202,140.500 25.722 M95.436 28.818 C 87.612 33.637,80.000 38.990,80.000 39.672 C 80.000 39.891,80.765 39.495,81.700 38.794 C 82.635 38.092,85.740 35.961,88.600 34.059 C 91.460 32.157,93.890 30.508,94.000 30.396 C 94.110 30.284,94.875 29.838,95.700 29.405 C 96.525 28.972,97.200 28.479,97.200 28.309 C 97.200 28.139,97.450 28.000,97.756 28.000 C 98.061 28.000,98.736 27.646,99.256 27.213 C 101.093 25.682,99.312 26.431,95.436 28.818 M300.800 27.200 C 301.350 27.630,301.947 27.986,302.127 27.991 C 302.306 27.996,303.043 28.450,303.764 29.000 C 304.486 29.550,305.201 30.000,305.355 30.000 C 305.508 30.000,305.851 30.185,306.117 30.412 C 307.606 31.681,318.400 38.699,318.400 38.398 C 318.400 37.675,301.308 26.388,300.246 26.409 C 300.001 26.414,300.250 26.770,300.800 27.200 M134.839 27.822 C 134.091 28.147,133.567 28.500,133.675 28.608 C 133.972 28.906,136.400 27.973,136.400 27.561 C 136.400 27.120,136.491 27.105,134.839 27.822 M263.600 27.598 C 263.600 27.857,265.687 28.800,266.260 28.800 C 266.973 28.800,266.102 28.043,265.000 27.705 C 264.230 27.468,263.600 27.420,263.600 27.598 M132.171 28.991 C 131.747 29.312,131.580 29.578,131.800 29.581 C 132.394 29.591,133.410 28.877,133.159 28.626 C 133.040 28.506,132.595 28.671,132.171 28.991 M266.800 28.722 C 266.800 28.925,267.655 29.415,268.700 29.811 C 269.745 30.207,272.740 31.497,275.356 32.676 C 277.971 33.856,280.175 34.759,280.252 34.681 C 280.373 34.561,274.822 31.892,271.000 30.233 C 269.726 29.680,267.600 28.733,267.100 28.495 C 266.935 28.417,266.800 28.519,266.800 28.722 M124.089 32.460 C 121.607 33.588,119.653 34.587,119.746 34.680 C 119.895 34.828,128.737 30.958,129.167 30.556 C 129.728 30.031,128.041 30.663,124.089 32.460 M280.833 34.952 C 281.241 35.324,285.200 37.193,285.200 37.013 C 285.200 36.788,281.380 34.800,280.947 34.800 C 280.793 34.800,280.742 34.868,280.833 34.952 M111.400 38.721 C 107.120 41.013,102.923 43.534,102.226 44.231 C 101.882 44.575,101.600 44.749,101.600 44.616 C 101.600 43.972,85.904 55.434,80.939 59.705 L 78.878 61.478 208.742 191.342 L 338.605 321.205 342.839 315.903 C 349.031 308.146,355.164 299.600,354.538 299.600 C 354.378 299.600,354.596 299.336,355.024 299.013 C 355.451 298.690,355.652 298.420,355.471 298.413 C 355.291 298.406,355.427 298.116,355.775 297.768 C 356.984 296.559,363.143 285.600,362.614 285.600 C 362.505 285.600,362.030 286.365,361.558 287.300 C 361.086 288.235,360.442 289.270,360.127 289.600 C 359.812 289.930,357.890 293.001,355.857 296.425 C 350.837 304.879,344.108 314.232,339.746 318.818 L 338.398 320.236 209.099 191.018 L 79.800 61.800 81.200 60.357 C 83.944 57.528,95.485 48.833,99.600 46.494 C 103.296 44.394,109.765 40.382,109.970 40.063 C 110.096 39.866,111.145 39.228,112.300 38.646 C 113.455 38.063,114.400 37.500,114.400 37.393 C 114.400 37.110,114.438 37.093,111.400 38.721 M285.600 37.393 C 285.600 37.500,286.545 38.063,287.700 38.646 C 288.855 39.228,289.896 39.855,290.014 40.037 C 290.132 40.220,293.045 42.066,296.488 44.139 C 318.324 57.287,343.391 81.673,353.500 99.600 C 355.402 102.975,359.427 109.412,359.713 109.538 C 359.886 109.614,360.572 110.757,361.239 112.078 C 361.907 113.400,362.536 114.397,362.639 114.294 C 362.742 114.192,361.644 111.996,360.200 109.415 C 346.734 85.350,325.791 62.797,302.146 46.898 C 300.136 45.547,298.381 44.552,298.246 44.687 C 298.111 44.823,298.000 44.744,298.000 44.512 C 298.000 44.080,295.157 42.304,289.251 39.047 C 285.833 37.162,285.600 37.056,285.600 37.393 M318.800 38.706 C 318.800 38.912,320.555 40.435,322.700 42.091 C 333.132 50.145,347.255 63.979,355.172 73.900 C 357.674 77.035,359.881 79.600,360.077 79.600 C 360.834 79.600,352.147 69.158,345.593 62.190 C 337.681 53.778,318.800 37.229,318.800 38.706 M77.600 41.107 C 66.611 50.089,60.794 55.394,53.914 62.711 C 47.870 69.139,39.196 79.600,39.910 79.600 C 40.099 79.600,41.801 77.665,43.692 75.300 C 49.042 68.611,50.029 67.529,58.579 58.982 C 67.486 50.079,68.639 49.025,75.100 43.883 C 77.575 41.913,79.600 40.144,79.600 39.951 C 79.600 39.468,79.620 39.456,77.600 41.107 M56.676 84.700 C 51.223 91.567,44.378 101.241,44.656 101.690 C 44.761 101.860,44.691 102.000,44.500 102.000 C 44.127 102.000,41.505 106.277,38.800 111.300 C 37.882 113.005,37.232 114.400,37.357 114.400 C 37.482 114.400,37.970 113.635,38.442 112.700 C 38.914 111.765,39.558 110.730,39.872 110.400 C 40.374 109.873,44.231 103.583,46.494 99.600 C 48.823 95.502,57.624 83.806,60.249 81.320 C 60.992 80.617,61.600 79.886,61.600 79.696 C 61.600 79.507,119.844 137.593,191.030 208.776 L 320.461 338.200 318.695 339.806 C 313.279 344.734,303.423 351.765,294.800 356.851 C 292.050 358.473,289.738 359.941,289.662 360.113 C 289.586 360.286,288.443 360.972,287.122 361.639 C 285.800 362.307,284.800 362.933,284.899 363.033 C 285.306 363.440,299.200 355.339,299.200 354.694 C 299.200 354.459,299.310 354.377,299.444 354.511 C 299.883 354.950,310.491 347.326,317.600 341.462 C 319.470 339.919,321.082 338.592,321.183 338.512 C 321.383 338.354,61.939 78.800,61.581 78.800 C 61.460 78.800,59.253 81.455,56.676 84.700 M37.297 82.700 C 33.420 87.988,26.400 98.960,26.400 99.730 C 26.400 100.352,27.552 99.181,27.842 98.264 C 27.992 97.789,28.539 96.843,29.058 96.162 C 29.576 95.481,30.000 94.731,30.000 94.496 C 30.000 94.260,30.135 94.007,30.300 93.933 C 30.465 93.860,32.157 91.460,34.059 88.600 C 35.961 85.740,38.092 82.635,38.794 81.700 C 39.495 80.765,39.891 80.000,39.672 80.000 C 39.454 80.000,38.385 81.215,37.297 82.700 M361.050 81.500 C 362.641 83.583,370.000 94.444,370.000 94.708 C 370.000 94.827,370.450 95.514,371.000 96.236 C 371.550 96.957,372.004 97.694,372.009 97.873 C 372.014 98.053,372.391 98.650,372.846 99.200 C 374.442 101.126,373.261 98.762,370.134 93.770 C 366.116 87.354,360.887 80.000,360.342 80.000 C 360.102 80.000,360.420 80.675,361.050 81.500 M24.286 103.670 C 23.302 105.502,21.852 108.170,21.064 109.600 C 17.469 116.121,15.226 121.200,15.942 121.200 C 16.259 121.200,17.283 118.857,17.342 118.000 C 17.349 117.890,17.508 117.620,17.695 117.400 C 17.882 117.180,19.351 114.300,20.959 111.000 C 22.568 107.700,24.458 104.033,25.160 102.852 C 25.862 101.670,26.355 100.622,26.255 100.522 C 26.156 100.422,25.269 101.839,24.286 103.670 M377.797 108.600 C 380.128 113.220,382.173 117.180,382.340 117.400 C 382.508 117.620,382.651 117.890,382.658 118.000 C 382.717 118.857,383.741 121.200,384.058 121.200 C 384.700 121.200,380.960 112.232,380.061 111.616 C 379.887 111.497,378.531 109.060,377.046 106.200 C 375.562 103.340,374.170 100.820,373.953 100.600 C 373.736 100.380,375.466 103.980,377.797 108.600 M33.193 122.495 C 32.462 124.093,31.342 126.535,30.705 127.921 C 30.069 129.308,29.615 130.644,29.697 130.890 C 29.779 131.136,30.090 130.722,30.389 129.969 C 30.687 129.216,31.813 126.646,32.890 124.258 C 33.967 121.869,34.775 119.842,34.686 119.753 C 34.596 119.663,33.925 120.897,33.193 122.495 M365.317 120.000 C 365.898 121.799,369.401 129.197,369.513 128.861 C 369.586 128.642,369.095 127.287,368.423 125.849 C 367.750 124.410,367.200 123.154,367.200 123.058 C 367.200 122.961,366.733 122.098,366.162 121.141 C 365.591 120.183,365.211 119.670,365.317 120.000 M15.043 122.233 C 14.721 123.072,14.735 123.200,15.153 123.200 C 15.348 123.200,15.601 122.840,15.716 122.400 C 15.963 121.455,15.395 121.314,15.043 122.233 M384.284 122.400 C 384.399 122.840,384.652 123.200,384.847 123.200 C 385.265 123.200,385.279 123.072,384.957 122.233 C 384.605 121.314,384.037 121.455,384.284 122.400 M13.843 125.208 C 13.108 127.046,13.083 127.200,13.514 127.200 C 13.686 127.200,14.128 126.390,14.495 125.400 C 15.321 123.169,14.729 122.994,13.843 125.208 M385.505 125.400 C 385.872 126.390,386.314 127.200,386.486 127.200 C 386.917 127.200,386.892 127.046,386.157 125.208 C 385.271 122.994,384.679 123.169,385.505 125.400 M12.612 128.300 C 11.800 130.373,8.800 139.360,8.800 139.716 C 8.800 140.200,9.375 139.713,9.450 139.167 C 9.477 138.965,9.545 138.710,9.600 138.600 C 9.655 138.490,9.745 138.220,9.800 138.000 C 9.855 137.780,9.945 137.510,10.000 137.400 C 10.055 137.290,10.145 137.020,10.200 136.800 C 10.255 136.580,10.345 136.310,10.400 136.200 C 10.455 136.090,10.545 135.820,10.600 135.600 C 10.655 135.380,10.745 135.110,10.800 135.000 C 10.855 134.890,10.938 134.665,10.984 134.500 C 11.029 134.335,11.251 133.750,11.476 133.200 C 12.796 129.976,13.543 127.600,13.237 127.600 C 13.044 127.600,12.762 127.915,12.612 128.300 M387.263 129.900 C 387.731 131.165,388.298 132.650,388.524 133.200 C 388.749 133.750,388.964 134.290,389.001 134.400 C 389.038 134.510,389.202 134.901,389.365 135.269 C 389.528 135.637,389.711 136.177,389.770 136.469 C 389.830 136.761,390.010 137.301,390.170 137.669 C 390.331 138.037,390.503 138.616,390.553 138.957 C 390.660 139.689,391.200 140.322,391.200 139.716 C 391.200 139.360,388.200 130.373,387.388 128.300 C 386.645 126.401,386.527 127.912,387.263 129.900 M369.606 129.900 C 369.624 130.777,370.388 131.359,370.394 130.500 C 370.397 130.005,370.220 129.600,370.000 129.600 C 369.780 129.600,369.603 129.735,369.606 129.900 M370.557 132.233 C 370.691 132.581,370.800 132.941,370.800 133.033 C 370.800 133.125,370.963 133.200,371.163 133.200 C 371.362 133.200,371.431 132.840,371.316 132.400 C 371.201 131.960,370.928 131.600,370.711 131.600 C 370.493 131.600,370.424 131.885,370.557 132.233 M28.252 133.916 C 27.682 134.838,27.254 136.400,27.571 136.400 C 27.948 136.400,28.911 133.978,28.642 133.709 C 28.553 133.620,28.377 133.713,28.252 133.916 M371.200 133.740 C 371.200 133.817,371.398 134.447,371.639 135.140 C 372.241 136.867,372.830 136.741,372.295 135.000 C 371.957 133.898,371.200 133.027,371.200 133.740 M24.860 143.256 C 23.778 146.682,23.511 148.294,24.145 147.567 C 24.343 147.340,26.800 139.874,26.800 139.499 C 26.800 138.187,25.928 139.877,24.860 143.256 M373.200 139.554 C 373.200 140.352,374.308 142.472,374.534 142.106 C 374.668 141.889,374.648 141.581,374.489 141.422 C 374.200 141.133,374.144 140.925,374.050 139.800 C 373.998 139.171,373.200 138.940,373.200 139.554 M391.267 141.620 C 391.501 142.292,391.770 142.763,391.866 142.668 C 392.147 142.387,391.544 140.400,391.177 140.400 C 390.993 140.400,391.033 140.949,391.267 141.620 M374.400 143.065 C 374.400 143.864,375.800 147.600,376.100 147.600 C 376.295 147.600,376.363 147.285,376.252 146.900 C 376.142 146.515,375.831 145.435,375.562 144.500 C 375.153 143.077,374.400 142.147,374.400 143.065 M6.629 147.029 C 6.481 147.615,6.438 148.172,6.532 148.266 C 6.627 148.360,6.824 147.958,6.971 147.371 C 7.119 146.785,7.162 146.228,7.068 146.134 C 6.973 146.040,6.776 146.442,6.629 147.029 M392.856 146.400 C 392.856 146.730,393.011 147.360,393.200 147.800 C 393.417 148.304,393.544 148.378,393.544 148.000 C 393.544 147.670,393.389 147.040,393.200 146.600 C 392.983 146.096,392.856 146.022,392.856 146.400 M23.024 149.047 C 22.781 150.015,22.975 150.759,23.367 150.366 C 23.789 149.944,24.051 148.000,23.687 148.000 C 23.467 148.000,23.168 148.471,23.024 149.047 M376.189 149.099 C 376.500 150.339,376.701 150.632,377.019 150.314 C 377.362 149.971,376.761 148.000,376.313 148.000 C 376.077 148.000,376.026 148.449,376.189 149.099 M22.400 151.400 C 22.400 151.730,22.580 152.000,22.800 152.000 C 23.020 152.000,23.200 151.730,23.200 151.400 C 23.200 151.070,23.020 150.800,22.800 150.800 C 22.580 150.800,22.400 151.070,22.400 151.400 M376.800 151.400 C 376.800 151.730,376.980 152.000,377.200 152.000 C 377.420 152.000,377.600 151.730,377.600 151.400 C 377.600 151.070,377.420 150.800,377.200 150.800 C 376.980 150.800,376.800 151.070,376.800 151.400 M394.480 152.600 C 394.480 153.040,394.624 153.850,394.800 154.400 C 395.054 155.192,395.120 155.233,395.120 154.600 C 395.120 154.160,394.976 153.350,394.800 152.800 C 394.546 152.008,394.480 151.967,394.480 152.600 M4.622 155.022 C 4.472 155.825,4.428 156.562,4.526 156.660 C 4.624 156.757,4.827 156.181,4.978 155.378 C 5.128 154.575,5.172 153.838,5.074 153.740 C 4.976 153.643,4.773 154.219,4.622 155.022 M377.600 154.200 C 377.600 154.530,377.780 154.800,378.000 154.800 C 378.220 154.800,378.400 154.530,378.400 154.200 C 378.400 153.870,378.220 153.600,378.000 153.600 C 377.780 153.600,377.600 153.870,377.600 154.200 M378.400 157.800 C 378.400 158.130,378.580 158.400,378.800 158.400 C 379.020 158.400,379.200 158.130,379.200 157.800 C 379.200 157.470,379.020 157.200,378.800 157.200 C 378.580 157.200,378.400 157.470,378.400 157.800 M20.400 159.624 C 20.400 160.077,20.580 160.336,20.800 160.200 C 21.020 160.064,21.200 159.693,21.200 159.376 C 21.200 159.059,21.020 158.800,20.800 158.800 C 20.580 158.800,20.400 159.171,20.400 159.624 M378.929 159.700 C 379.048 160.195,379.268 161.277,379.418 162.104 C 379.568 162.932,379.878 163.725,380.108 163.867 C 380.386 164.039,380.429 163.671,380.237 162.762 C 380.078 162.013,379.846 160.815,379.722 160.100 C 379.597 159.385,379.319 158.800,379.104 158.800 C 378.889 158.800,378.810 159.205,378.929 159.700 M20.000 161.400 C 20.000 161.730,20.180 162.000,20.400 162.000 C 20.620 162.000,20.800 161.730,20.800 161.400 C 20.800 161.070,20.620 160.800,20.400 160.800 C 20.180 160.800,20.000 161.070,20.000 161.400 M19.600 163.200 C 19.600 163.640,19.780 164.000,20.000 164.000 C 20.220 164.000,20.400 163.640,20.400 163.200 C 20.400 162.760,20.220 162.400,20.000 162.400 C 19.780 162.400,19.600 162.760,19.600 163.200 M1.293 175.200 C 1.293 175.970,1.375 176.285,1.476 175.900 C 1.576 175.515,1.576 174.885,1.476 174.500 C 1.375 174.115,1.293 174.430,1.293 175.200 M398.493 175.200 C 398.493 175.970,398.575 176.285,398.676 175.900 C 398.776 175.515,398.776 174.885,398.676 174.500 C 398.575 174.115,398.493 174.430,398.493 175.200 M0.901 178.600 C 0.905 179.480,0.987 179.793,1.083 179.295 C 1.179 178.798,1.175 178.078,1.075 177.695 C 0.975 177.313,0.896 177.720,0.901 178.600 M17.293 178.400 C 17.293 179.170,17.375 179.485,17.476 179.100 C 17.576 178.715,17.576 178.085,17.476 177.700 C 17.375 177.315,17.293 177.630,17.293 178.400 M398.893 178.800 C 398.893 179.570,398.975 179.885,399.076 179.500 C 399.176 179.115,399.176 178.485,399.076 178.100 C 398.975 177.715,398.893 178.030,398.893 178.800 M382.909 182.400 C 382.909 183.390,382.987 183.795,383.082 183.300 C 383.178 182.805,383.178 181.995,383.082 181.500 C 382.987 181.005,382.909 181.410,382.909 182.400 M16.901 182.600 C 16.905 183.480,16.987 183.793,17.083 183.295 C 17.179 182.798,17.175 182.078,17.075 181.695 C 16.975 181.313,16.896 181.720,16.901 182.600 M0.501 183.400 C 0.505 184.280,0.587 184.593,0.683 184.095 C 0.779 183.598,0.775 182.878,0.675 182.495 C 0.575 182.113,0.496 182.520,0.501 183.400 M399.301 183.400 C 399.305 184.280,399.387 184.593,399.483 184.095 C 399.579 183.598,399.575 182.878,399.475 182.495 C 399.375 182.113,399.296 182.520,399.301 183.400 M16.520 187.600 C 16.520 188.810,16.595 189.305,16.687 188.700 C 16.778 188.095,16.778 187.105,16.687 186.500 C 16.595 185.895,16.520 186.390,16.520 187.600 M383.320 187.600 C 383.320 188.810,383.395 189.305,383.487 188.700 C 383.578 188.095,383.578 187.105,383.487 186.500 C 383.395 185.895,383.320 186.390,383.320 187.600 M0.128 189.600 C 0.128 191.030,0.201 191.615,0.289 190.900 C 0.378 190.185,0.378 189.015,0.289 188.300 C 0.201 187.585,0.128 188.170,0.128 189.600 M399.731 189.800 C 399.733 191.340,399.805 191.921,399.892 191.091 C 399.979 190.261,399.977 189.001,399.889 188.291 C 399.800 187.581,399.729 188.260,399.731 189.800 M16.167 200.000 C 16.167 204.290,16.226 206.045,16.298 203.900 C 16.370 201.755,16.370 198.245,16.298 196.100 C 16.226 193.955,16.167 195.710,16.167 200.000 M383.766 200.000 C 383.766 204.070,383.825 205.735,383.898 203.700 C 383.971 201.665,383.971 198.335,383.898 196.300 C 383.825 194.265,383.766 195.930,383.766 200.000 M0.128 210.400 C 0.128 211.830,0.201 212.415,0.289 211.700 C 0.378 210.985,0.378 209.815,0.289 209.100 C 0.201 208.385,0.128 208.970,0.128 210.400 M399.728 210.400 C 399.728 211.830,399.801 212.415,399.889 211.700 C 399.978 210.985,399.978 209.815,399.889 209.100 C 399.801 208.385,399.728 208.970,399.728 210.400 M16.520 212.400 C 16.520 213.610,16.595 214.105,16.687 213.500 C 16.778 212.895,16.778 211.905,16.687 211.300 C 16.595 210.695,16.520 211.190,16.520 212.400 M383.320 212.400 C 383.320 213.610,383.395 214.105,383.487 213.500 C 383.578 212.895,383.578 211.905,383.487 211.300 C 383.395 210.695,383.320 211.190,383.320 212.400 M0.501 216.600 C 0.505 217.480,0.587 217.793,0.683 217.295 C 0.779 216.798,0.775 216.078,0.675 215.695 C 0.575 215.313,0.496 215.720,0.501 216.600 M399.301 216.600 C 399.305 217.480,399.387 217.793,399.483 217.295 C 399.579 216.798,399.575 216.078,399.475 215.695 C 399.375 215.313,399.296 215.720,399.301 216.600 M16.909 217.600 C 16.909 218.590,16.987 218.995,17.082 218.500 C 17.178 218.005,17.178 217.195,17.082 216.700 C 16.987 216.205,16.909 216.610,16.909 217.600 M382.901 217.400 C 382.905 218.280,382.987 218.593,383.083 218.095 C 383.179 217.598,383.175 216.878,383.075 216.495 C 382.975 216.113,382.896 216.520,382.901 217.400 M0.901 221.400 C 0.905 222.280,0.987 222.593,1.083 222.095 C 1.179 221.598,1.175 220.878,1.075 220.495 C 0.975 220.113,0.896 220.520,0.901 221.400 M398.893 221.200 C 398.893 221.970,398.975 222.285,399.076 221.900 C 399.176 221.515,399.176 220.885,399.076 220.500 C 398.975 220.115,398.893 220.430,398.893 221.200 M17.293 221.600 C 17.293 222.370,17.375 222.685,17.476 222.300 C 17.576 221.915,17.576 221.285,17.476 220.900 C 17.375 220.515,17.293 220.830,17.293 221.600 M1.293 224.800 C 1.293 225.570,1.375 225.885,1.476 225.500 C 1.576 225.115,1.576 224.485,1.476 224.100 C 1.375 223.715,1.293 224.030,1.293 224.800 M398.493 224.800 C 398.493 225.570,398.575 225.885,398.676 225.500 C 398.776 225.115,398.776 224.485,398.676 224.100 C 398.575 223.715,398.493 224.030,398.493 224.800 M19.791 237.500 C 20.084 239.068,20.274 239.460,20.588 239.146 C 20.921 238.813,20.309 236.000,19.903 236.000 C 19.667 236.000,19.622 236.596,19.791 237.500 M379.887 236.273 C 379.430 237.046,379.163 239.200,379.524 239.200 C 379.737 239.200,380.033 238.552,380.181 237.759 C 380.442 236.372,380.288 235.595,379.887 236.273 M20.400 240.600 C 20.400 240.930,20.580 241.200,20.800 241.200 C 21.020 241.200,21.200 240.930,21.200 240.600 C 21.200 240.270,21.020 240.000,20.800 240.000 C 20.580 240.000,20.400 240.270,20.400 240.600 M378.800 240.600 C 378.800 240.930,378.980 241.200,379.200 241.200 C 379.420 241.200,379.600 240.930,379.600 240.600 C 379.600 240.270,379.420 240.000,379.200 240.000 C 378.980 240.000,378.800 240.270,378.800 240.600 M378.400 242.200 C 378.400 242.530,378.580 242.800,378.800 242.800 C 379.020 242.800,379.200 242.530,379.200 242.200 C 379.200 241.870,379.020 241.600,378.800 241.600 C 378.580 241.600,378.400 241.870,378.400 242.200 M4.480 243.800 C 4.480 244.240,4.624 245.050,4.800 245.600 C 5.054 246.392,5.120 246.433,5.120 245.800 C 5.120 245.360,4.976 244.550,4.800 244.000 C 4.546 243.208,4.480 243.167,4.480 243.800 M21.600 245.800 C 21.600 246.130,21.780 246.400,22.000 246.400 C 22.220 246.400,22.400 246.130,22.400 245.800 C 22.400 245.470,22.220 245.200,22.000 245.200 C 21.780 245.200,21.600 245.470,21.600 245.800 M377.424 246.247 C 377.181 247.215,377.375 247.959,377.767 247.566 C 378.189 247.144,378.451 245.200,378.087 245.200 C 377.867 245.200,377.568 245.671,377.424 246.247 M22.249 247.900 C 22.553 249.168,22.713 249.420,23.019 249.114 C 23.346 248.787,22.771 246.800,22.349 246.800 C 22.149 246.800,22.104 247.295,22.249 247.900 M376.800 248.600 C 376.800 248.930,376.980 249.200,377.200 249.200 C 377.420 249.200,377.600 248.930,377.600 248.600 C 377.600 248.270,377.420 248.000,377.200 248.000 C 376.980 248.000,376.800 248.270,376.800 248.600 M22.989 250.699 C 23.300 251.939,23.501 252.232,23.819 251.914 C 24.162 251.571,23.561 249.600,23.113 249.600 C 22.877 249.600,22.826 250.049,22.989 250.699 M376.224 250.647 C 375.981 251.615,376.175 252.359,376.567 251.966 C 376.989 251.544,377.251 249.600,376.887 249.600 C 376.667 249.600,376.368 250.071,376.224 250.647 M6.456 252.000 C 6.456 252.330,6.611 252.960,6.800 253.400 C 7.017 253.904,7.144 253.978,7.144 253.600 C 7.144 253.270,6.989 252.640,6.800 252.200 C 6.583 251.696,6.456 251.622,6.456 252.000 M393.029 252.629 C 392.881 253.215,392.838 253.772,392.932 253.866 C 393.027 253.960,393.224 253.558,393.371 252.971 C 393.519 252.385,393.562 251.828,393.468 251.734 C 393.373 251.640,393.176 252.042,393.029 252.629 M23.600 252.558 C 23.600 253.042,25.335 258.264,25.608 258.600 C 25.786 258.820,25.934 259.138,25.936 259.307 C 25.948 260.339,26.527 262.000,26.875 262.000 C 27.101 262.000,27.201 261.775,27.097 261.500 C 26.993 261.225,26.315 259.065,25.590 256.700 C 24.547 253.294,23.600 251.323,23.600 252.558 M375.073 254.535 C 374.303 256.979,374.275 257.200,374.737 257.200 C 374.922 257.200,375.293 256.435,375.562 255.500 C 375.831 254.565,376.142 253.485,376.252 253.100 C 376.767 251.313,375.667 252.652,375.073 254.535 M373.842 258.235 C 373.502 259.121,373.541 259.600,373.953 259.600 C 374.425 259.600,374.812 258.055,374.404 257.803 C 374.228 257.694,373.975 257.888,373.842 258.235 M8.800 260.284 C 8.800 260.640,11.800 269.627,12.612 271.700 C 12.762 272.085,13.044 272.400,13.237 272.400 C 13.543 272.400,12.796 270.024,11.476 266.800 C 11.251 266.250,11.029 265.665,10.984 265.500 C 10.938 265.335,10.855 265.110,10.800 265.000 C 10.745 264.890,10.655 264.620,10.600 264.400 C 10.545 264.180,10.455 263.910,10.400 263.800 C 10.345 263.690,10.255 263.420,10.200 263.200 C 10.145 262.980,10.055 262.710,10.000 262.600 C 9.945 262.490,9.855 262.220,9.800 262.000 C 9.745 261.780,9.655 261.510,9.600 261.400 C 9.545 261.290,9.478 261.035,9.450 260.833 C 9.375 260.287,8.800 259.800,8.800 260.284 M390.800 260.307 C 390.800 260.550,390.592 261.255,390.339 261.874 C 390.085 262.493,389.815 263.326,389.738 263.725 C 389.661 264.123,389.261 265.203,388.850 266.125 C 387.454 269.254,386.410 272.400,386.768 272.400 C 387.340 272.400,391.465 260.532,391.041 260.108 C 390.909 259.975,390.800 260.065,390.800 260.307 M27.660 264.801 C 28.011 265.807,28.800 266.833,28.800 266.283 C 28.800 265.673,27.859 263.600,27.582 263.600 C 27.395 263.600,27.430 264.140,27.660 264.801 M371.639 264.860 C 371.113 266.370,371.111 266.400,371.533 266.400 C 371.716 266.400,372.059 265.770,372.295 265.000 C 372.830 263.259,372.241 263.133,371.639 264.860 M28.818 267.634 C 29.064 268.093,29.344 268.389,29.442 268.292 C 29.722 268.012,29.154 266.800,28.743 266.800 C 28.539 266.800,28.573 267.175,28.818 267.634 M370.643 267.433 C 370.321 268.272,370.335 268.400,370.753 268.400 C 370.948 268.400,371.201 268.040,371.316 267.600 C 371.563 266.655,370.995 266.514,370.643 267.433 M29.600 269.301 C 29.600 269.650,29.867 270.445,30.194 271.068 C 30.520 271.690,31.254 273.280,31.825 274.600 C 33.321 278.061,34.516 280.417,34.688 280.245 C 34.818 280.115,30.119 269.271,29.743 268.833 C 29.664 268.742,29.600 268.952,29.600 269.301 M369.611 270.031 C 369.313 270.784,368.187 273.354,367.110 275.742 C 366.033 278.131,365.215 280.148,365.293 280.226 C 365.458 280.391,366.686 278.017,368.205 274.600 C 368.791 273.280,369.550 271.645,369.891 270.966 C 370.232 270.287,370.430 269.491,370.332 269.197 C 370.233 268.899,369.914 269.268,369.611 270.031 M13.200 272.992 C 13.200 273.097,13.490 273.907,13.843 274.792 C 14.729 277.006,15.321 276.831,14.495 274.600 C 13.946 273.121,13.200 272.194,13.200 272.992 M385.505 274.600 C 384.679 276.831,385.271 277.006,386.157 274.792 C 386.892 272.954,386.917 272.800,386.486 272.800 C 386.314 272.800,385.872 273.610,385.505 274.600 M14.957 277.433 C 15.091 277.781,15.200 278.141,15.200 278.233 C 15.200 278.325,15.363 278.400,15.563 278.400 C 15.762 278.400,15.831 278.040,15.716 277.600 C 15.601 277.160,15.328 276.800,15.111 276.800 C 14.893 276.800,14.824 277.085,14.957 277.433 M384.284 277.600 C 384.169 278.040,384.238 278.400,384.437 278.400 C 384.637 278.400,384.800 278.325,384.800 278.233 C 384.800 278.141,384.909 277.781,385.043 277.433 C 385.176 277.085,385.107 276.800,384.889 276.800 C 384.672 276.800,384.399 277.160,384.284 277.600 M15.825 279.700 C 16.417 281.613,23.369 295.122,24.145 295.868 C 24.335 296.051,23.151 293.500,21.513 290.200 C 19.876 286.900,18.015 282.985,17.379 281.500 C 16.294 278.969,15.210 277.713,15.825 279.700 M382.621 281.500 C 381.985 282.985,380.144 286.855,378.530 290.100 C 376.916 293.345,375.684 296.000,375.793 296.000 C 375.903 296.000,376.826 294.335,377.846 292.300 C 378.866 290.265,379.852 288.503,380.038 288.384 C 380.400 288.153,383.710 281.204,384.175 279.700 C 384.790 277.713,383.706 278.969,382.621 281.500 M35.200 281.749 C 35.200 282.181,36.789 285.200,37.016 285.200 C 37.126 285.200,36.830 284.435,36.359 283.500 C 35.432 281.661,35.200 281.311,35.200 281.749 M38.391 287.983 C 40.141 291.448,43.481 297.024,44.297 297.839 C 44.683 298.226,44.927 298.620,44.837 298.715 C 44.540 299.029,52.118 309.611,57.184 315.957 C 63.013 323.258,75.252 335.705,82.000 341.195 C 89.331 347.159,101.600 356.041,101.600 355.384 C 101.600 355.251,101.876 355.419,102.213 355.756 C 103.380 356.923,114.400 363.124,114.400 362.613 C 114.400 362.503,113.455 361.937,112.300 361.354 C 111.145 360.772,110.096 360.134,109.970 359.937 C 109.765 359.618,103.296 355.606,99.600 353.506 C 81.411 343.169,56.680 317.683,43.992 296.200 C 42.173 293.120,40.466 290.418,40.198 290.197 C 39.930 289.975,39.233 288.850,38.649 287.697 C 38.065 286.543,37.497 285.600,37.388 285.600 C 37.278 285.600,37.730 286.672,38.391 287.983 M25.220 298.039 C 25.680 298.940,26.141 299.593,26.244 299.489 C 26.438 299.295,24.853 296.400,24.552 296.400 C 24.460 296.400,24.760 297.137,25.220 298.039 M374.400 298.000 C 373.951 298.880,373.674 299.600,373.784 299.600 C 373.894 299.600,374.351 298.880,374.800 298.000 C 375.249 297.120,375.526 296.400,375.416 296.400 C 375.306 296.400,374.849 297.120,374.400 298.000 M26.409 300.219 C 26.404 300.449,27.480 302.391,28.799 304.533 C 40.218 323.071,54.941 340.091,71.334 353.701 C 78.211 359.411,79.600 360.484,79.600 360.087 C 79.600 359.886,77.035 357.674,73.900 355.173 C 59.689 343.834,43.807 326.337,33.600 310.774 C 31.950 308.258,30.465 306.140,30.300 306.067 C 30.135 305.993,30.000 305.740,30.000 305.504 C 30.000 305.269,29.550 304.486,29.000 303.764 C 28.450 303.043,27.996 302.306,27.991 302.127 C 27.977 301.623,26.419 299.744,26.409 300.219 M372.581 301.263 C 372.209 301.998,371.668 302.870,371.379 303.201 C 371.091 303.531,370.615 304.251,370.321 304.801 C 362.409 319.591,340.024 344.594,322.900 357.766 C 320.645 359.501,318.800 361.088,318.800 361.294 C 318.800 362.013,330.393 352.498,337.400 346.029 C 347.106 337.068,358.926 323.155,366.689 311.555 C 370.468 305.908,373.740 300.407,373.476 300.143 C 373.357 300.023,372.954 300.527,372.581 301.263 M80.000 360.325 C 80.000 361.341,99.246 374.087,99.857 373.476 C 99.977 373.357,99.473 372.949,98.737 372.570 C 98.002 372.191,96.843 371.458,96.162 370.941 C 95.481 370.423,94.827 370.000,94.708 370.000 C 94.444 370.000,83.583 362.641,81.500 361.050 C 80.675 360.420,80.000 360.094,80.000 360.325 M312.200 365.432 C 308.900 367.720,305.623 369.880,304.918 370.232 C 304.214 370.585,303.426 371.127,303.169 371.437 C 302.912 371.747,302.499 372.004,302.251 372.009 C 301.650 372.021,299.674 373.580,300.246 373.591 C 301.331 373.613,318.400 362.320,318.400 361.580 C 318.400 361.089,319.040 360.691,312.200 365.432 M121.000 366.146 C 121.880 366.712,122.783 367.181,123.006 367.188 C 123.229 367.194,124.543 367.752,125.926 368.427 C 127.309 369.101,128.619 369.594,128.838 369.521 C 129.056 369.448,127.382 368.547,125.118 367.520 C 119.924 365.163,118.985 364.849,121.000 366.146 M276.989 366.524 C 275.455 367.253,272.961 368.370,271.447 369.007 C 269.933 369.644,268.928 370.243,269.213 370.338 C 269.499 370.433,270.287 370.238,270.966 369.904 C 274.402 368.214,277.536 366.800,277.849 366.797 C 278.042 366.796,278.740 366.437,279.400 366.000 C 281.210 364.802,280.116 365.039,276.989 366.524 M129.600 370.000 C 129.600 370.220,130.005 370.397,130.500 370.394 C 131.228 370.389,131.285 370.314,130.800 370.000 C 130.024 369.499,129.600 369.499,129.600 370.000 M131.600 370.753 C 131.600 370.948,131.960 371.201,132.400 371.316 C 133.345 371.563,133.486 370.995,132.567 370.643 C 131.728 370.321,131.600 370.335,131.600 370.753 M267.300 370.665 C 266.481 370.995,266.733 371.543,267.600 371.316 C 268.040 371.201,268.400 370.948,268.400 370.753 C 268.400 370.372,268.088 370.347,267.300 370.665 M133.600 371.533 C 133.600 371.716,134.230 372.059,135.000 372.295 C 136.741 372.830,136.867 372.241,135.140 371.639 C 133.630 371.113,133.600 371.111,133.600 371.533 M264.700 371.665 C 263.092 372.252,263.354 372.801,265.000 372.295 C 265.770 372.059,266.400 371.716,266.400 371.533 C 266.400 371.126,266.115 371.148,264.700 371.665 M139.200 373.529 C 139.200 373.926,147.223 376.511,147.523 376.211 C 147.851 375.882,147.642 375.789,143.599 374.455 C 139.477 373.094,139.200 373.036,139.200 373.529 M256.400 374.461 C 252.407 375.751,252.138 375.871,252.477 376.211 C 252.777 376.511,260.800 373.926,260.800 373.529 C 260.800 373.059,260.614 373.098,256.400 374.461 M100.400 373.784 C 100.400 373.894,101.120 374.351,102.000 374.800 C 102.880 375.249,103.600 375.526,103.600 375.416 C 103.600 375.306,102.880 374.849,102.000 374.400 C 101.120 373.951,100.400 373.674,100.400 373.784 M298.300 374.229 C 296.805 375.040,296.896 375.378,298.400 374.600 C 299.060 374.259,299.600 373.894,299.600 373.790 C 299.600 373.532,299.557 373.547,298.300 374.229 M104.000 375.813 C 104.000 375.911,105.665 376.826,107.700 377.846 C 109.735 378.866,111.497 379.852,111.616 380.038 C 112.191 380.936,121.200 384.715,121.200 384.058 C 121.200 383.741,118.857 382.717,118.000 382.658 C 117.890 382.651,117.620 382.493,117.400 382.306 C 116.815 381.812,104.000 375.602,104.000 375.813 M290.800 378.189 C 288.050 379.590,284.225 381.418,282.300 382.250 C 279.144 383.615,277.445 384.873,279.700 384.175 C 281.204 383.710,288.153 380.400,288.384 380.038 C 288.503 379.852,290.265 378.866,292.300 377.846 C 294.335 376.826,296.000 375.904,296.000 375.796 C 296.000 375.524,296.321 375.376,290.800 378.189 M148.000 376.313 C 148.000 376.761,149.971 377.362,150.314 377.019 C 150.632 376.701,150.339 376.500,149.099 376.189 C 148.449 376.026,148.000 376.077,148.000 376.313 M250.300 376.276 C 249.915 376.376,249.600 376.646,249.600 376.876 C 249.600 377.114,249.988 377.189,250.500 377.052 C 250.995 376.919,251.535 376.808,251.700 376.805 C 251.865 376.802,252.000 376.620,252.000 376.400 C 252.000 375.989,251.528 375.955,250.300 376.276 M150.800 377.200 C 150.800 377.420,151.070 377.600,151.400 377.600 C 151.730 377.600,152.000 377.420,152.000 377.200 C 152.000 376.980,151.730 376.800,151.400 376.800 C 151.070 376.800,150.800 376.980,150.800 377.200 M247.500 377.076 C 247.115 377.176,246.800 377.446,246.800 377.676 C 246.800 377.914,247.188 377.989,247.700 377.852 C 248.195 377.719,248.735 377.608,248.900 377.605 C 249.065 377.602,249.200 377.420,249.200 377.200 C 249.200 376.789,248.728 376.755,247.500 377.076 M152.400 377.513 C 152.400 377.961,154.371 378.562,154.714 378.219 C 155.032 377.901,154.739 377.700,153.499 377.389 C 152.849 377.226,152.400 377.277,152.400 377.513 M243.600 378.400 C 243.600 378.620,243.870 378.800,244.200 378.800 C 244.530 378.800,244.800 378.620,244.800 378.400 C 244.800 378.180,244.530 378.000,244.200 378.000 C 243.870 378.000,243.600 378.180,243.600 378.400 M241.600 378.800 C 241.600 379.020,241.870 379.200,242.200 379.200 C 242.530 379.200,242.800 379.020,242.800 378.800 C 242.800 378.580,242.530 378.400,242.200 378.400 C 241.870 378.400,241.600 378.580,241.600 378.800 M158.800 379.200 C 158.800 379.420,159.171 379.600,159.624 379.600 C 160.077 379.600,160.336 379.420,160.200 379.200 C 160.064 378.980,159.693 378.800,159.376 378.800 C 159.059 378.800,158.800 378.980,158.800 379.200 M240.000 379.200 C 240.000 379.420,240.270 379.600,240.600 379.600 C 240.930 379.600,241.200 379.420,241.200 379.200 C 241.200 378.980,240.930 378.800,240.600 378.800 C 240.270 378.800,240.000 378.980,240.000 379.200 M160.800 379.518 C 160.800 379.728,161.363 380.013,162.050 380.150 C 163.792 380.498,164.235 380.471,163.780 380.042 C 163.204 379.499,160.800 379.077,160.800 379.518 M238.200 379.600 C 238.064 379.820,238.323 380.000,238.776 380.000 C 239.229 380.000,239.600 379.820,239.600 379.600 C 239.600 379.380,239.341 379.200,239.024 379.200 C 238.707 379.200,238.336 379.380,238.200 379.600 M236.200 380.000 C 236.064 380.220,236.323 380.400,236.776 380.400 C 237.229 380.400,237.600 380.220,237.600 380.000 C 237.600 379.780,237.341 379.600,237.024 379.600 C 236.707 379.600,236.336 379.780,236.200 380.000 M181.500 383.082 C 181.995 383.178,182.805 383.178,183.300 383.082 C 183.795 382.987,183.390 382.909,182.400 382.909 C 181.410 382.909,181.005 382.987,181.500 383.082 M216.705 383.083 C 217.202 383.179,217.922 383.175,218.305 383.075 C 218.687 382.975,218.280 382.896,217.400 382.901 C 216.520 382.905,216.207 382.987,216.705 383.083 M186.505 383.487 C 187.114 383.579,188.014 383.577,188.505 383.482 C 188.997 383.387,188.500 383.311,187.400 383.314 C 186.300 383.317,185.897 383.395,186.505 383.487 M211.705 383.487 C 212.314 383.579,213.214 383.577,213.705 383.482 C 214.197 383.387,213.700 383.311,212.600 383.314 C 211.500 383.317,211.097 383.395,211.705 383.487 M196.521 383.898 C 198.677 383.971,202.097 383.970,204.121 383.898 C 206.144 383.825,204.380 383.766,200.200 383.767 C 196.020 383.767,194.364 383.826,196.521 383.898 M121.600 384.395 C 121.600 384.671,122.541 385.200,123.033 385.200 C 123.579 385.200,123.066 384.458,122.400 384.284 C 121.960 384.169,121.600 384.219,121.600 384.395 M277.500 384.303 C 277.115 384.389,276.800 384.625,276.800 384.829 C 276.800 385.298,277.234 385.293,277.988 384.816 C 278.707 384.361,278.450 384.092,277.500 384.303 M123.600 385.195 C 123.600 385.471,124.541 386.000,125.033 386.000 C 125.579 386.000,125.066 385.258,124.400 385.084 C 123.960 384.969,123.600 385.019,123.600 385.195 M273.900 385.720 C 273.008 386.072,272.361 386.800,272.940 386.800 C 273.555 386.800,275.600 385.847,275.600 385.561 C 275.600 385.127,275.339 385.151,273.900 385.720 M125.600 385.995 C 125.600 386.271,126.541 386.800,127.033 386.800 C 127.579 386.800,127.066 386.058,126.400 385.884 C 125.960 385.769,125.600 385.819,125.600 385.995 M127.600 386.763 C 127.600 386.956,127.915 387.238,128.300 387.388 C 130.373 388.200,139.360 391.200,139.716 391.200 C 140.322 391.200,139.689 390.660,138.957 390.553 C 138.616 390.503,138.037 390.331,137.669 390.170 C 137.301 390.010,136.761 389.830,136.469 389.770 C 136.177 389.711,135.637 389.528,135.269 389.365 C 134.901 389.202,134.510 389.038,134.400 389.001 C 134.290 388.964,133.750 388.749,133.200 388.524 C 129.976 387.204,127.600 386.457,127.600 386.763 M269.600 387.450 C 268.170 387.984,266.438 388.685,265.751 389.006 C 265.063 389.327,264.163 389.654,263.751 389.734 C 263.338 389.813,262.493 390.085,261.874 390.339 C 261.255 390.592,260.550 390.800,260.307 390.800 C 260.065 390.800,259.979 390.912,260.116 391.049 C 260.359 391.293,270.920 387.868,272.019 387.188 C 273.286 386.405,272.031 386.541,269.600 387.450 M252.200 393.200 C 251.696 393.417,251.622 393.544,252.000 393.544 C 252.330 393.544,252.960 393.389,253.400 393.200 C 253.904 392.983,253.978 392.856,253.600 392.856 C 253.270 392.856,252.640 393.011,252.200 393.200 M152.800 394.800 C 153.350 394.976,154.160 395.120,154.600 395.120 C 155.233 395.120,155.192 395.054,154.400 394.800 C 153.850 394.624,153.040 394.480,152.600 394.480 C 151.967 394.480,152.008 394.546,152.800 394.800 M244.000 395.200 C 243.208 395.454,243.167 395.520,243.800 395.520 C 244.240 395.520,245.050 395.376,245.600 395.200 C 246.392 394.946,246.433 394.880,245.800 394.880 C 245.360 394.880,244.550 395.024,244.000 395.200 M156.400 395.600 C 156.950 395.776,157.760 395.920,158.200 395.920 C 158.833 395.920,158.792 395.854,158.000 395.600 C 157.450 395.424,156.640 395.280,156.200 395.280 C 155.567 395.280,155.608 395.346,156.400 395.600 M174.500 398.676 C 174.885 398.776,175.515 398.776,175.900 398.676 C 176.285 398.575,175.970 398.493,175.200 398.493 C 174.430 398.493,174.115 398.575,174.500 398.676 M224.100 398.676 C 224.485 398.776,225.115 398.776,225.500 398.676 C 225.885 398.575,225.570 398.493,224.800 398.493 C 224.030 398.493,223.715 398.575,224.100 398.676 M178.100 399.076 C 178.485 399.176,179.115 399.176,179.500 399.076 C 179.885 398.975,179.570 398.893,178.800 398.893 C 178.030 398.893,177.715 398.975,178.100 399.076 M220.500 399.076 C 220.885 399.176,221.515 399.176,221.900 399.076 C 222.285 398.975,221.970 398.893,221.200 398.893 C 220.430 398.893,220.115 398.975,220.500 399.076 M182.705 399.483 C 183.202 399.579,183.922 399.575,184.305 399.475 C 184.687 399.375,184.280 399.296,183.400 399.301 C 182.520 399.305,182.207 399.387,182.705 399.483 M215.905 399.483 C 216.402 399.579,217.122 399.575,217.505 399.475 C 217.887 399.375,217.480 399.296,216.600 399.301 C 215.720 399.305,215.407 399.387,215.905 399.483 M188.300 399.889 C 189.015 399.978,190.185 399.978,190.900 399.889 C 191.615 399.801,191.030 399.728,189.600 399.728 C 188.170 399.728,187.585 399.801,188.300 399.889 M209.100 399.889 C 209.815 399.978,210.985 399.978,211.700 399.889 C 212.415 399.801,211.830 399.728,210.400 399.728 C 208.970 399.728,208.385 399.801,209.100 399.889 " stroke="none" fill="#cdcdcd" fill-rule="evenodd"></path><path id="path1" d="M186.800 0.454 C 172.613 1.344,150.015 5.411,142.200 8.481 C 141.100 8.914,140.155 9.252,140.100 9.234 C 140.045 9.215,139.910 9.223,139.800 9.250 C 139.690 9.278,139.420 9.345,139.200 9.400 C 138.980 9.455,138.710 9.545,138.600 9.600 C 138.490 9.655,138.220 9.745,138.000 9.800 C 137.780 9.855,137.510 9.945,137.400 10.000 C 137.290 10.055,137.020 10.145,136.800 10.200 C 136.580 10.255,136.310 10.345,136.200 10.400 C 136.090 10.455,135.820 10.545,135.600 10.600 C 135.380 10.655,135.110 10.745,135.000 10.800 C 134.890 10.855,134.665 10.938,134.500 10.984 C 134.335 11.029,133.750 11.251,133.200 11.476 C 130.150 12.725,127.599 13.552,127.594 13.294 C 127.591 13.132,127.456 13.192,127.294 13.428 C 126.918 13.975,123.602 15.291,123.594 14.897 C 123.591 14.734,123.439 14.834,123.258 15.120 C 123.076 15.406,122.539 15.669,122.064 15.705 C 121.589 15.741,121.200 15.898,121.200 16.054 C 121.200 16.300,119.384 17.040,118.200 17.276 C 117.980 17.319,117.620 17.507,117.400 17.694 C 117.180 17.880,114.120 19.455,110.600 21.195 C 107.080 22.935,103.120 24.994,101.800 25.771 C 100.480 26.548,98.950 27.408,98.400 27.683 C 97.850 27.959,97.310 28.291,97.200 28.422 C 97.090 28.553,96.370 29.007,95.600 29.430 C 94.830 29.854,94.110 30.290,94.000 30.400 C 93.890 30.510,92.180 31.658,90.200 32.951 C 88.220 34.244,85.178 36.314,83.439 37.551 C 81.700 38.788,80.125 39.755,79.939 39.700 C 79.753 39.645,79.600 39.758,79.600 39.951 C 79.600 40.144,77.575 41.913,75.100 43.883 C 68.637 49.026,67.484 50.080,58.581 58.982 C 50.389 67.173,48.260 69.509,43.475 75.556 C 41.976 77.450,40.446 79.233,40.075 79.517 C 39.704 79.802,39.464 80.130,39.542 80.248 C 39.621 80.365,38.699 81.842,37.494 83.530 C 36.288 85.219,34.244 88.220,32.951 90.200 C 31.658 92.180,30.465 93.860,30.300 93.933 C 30.135 94.007,30.000 94.260,30.000 94.496 C 30.000 94.731,29.589 95.481,29.086 96.162 C 28.584 96.843,27.950 97.850,27.678 98.400 C 27.406 98.950,26.548 100.480,25.771 101.800 C 24.994 103.120,22.935 107.080,21.195 110.600 C 19.455 114.120,17.880 117.180,17.694 117.400 C 17.507 117.620,17.349 117.890,17.342 118.000 C 17.294 118.699,16.288 121.200,16.054 121.200 C 15.898 121.200,15.741 121.589,15.705 122.064 C 15.669 122.539,15.406 123.076,15.120 123.258 C 14.834 123.439,14.734 123.591,14.897 123.594 C 15.291 123.602,13.975 126.918,13.428 127.294 C 13.192 127.456,13.132 127.591,13.294 127.594 C 13.552 127.599,12.725 130.150,11.476 133.200 C 11.251 133.750,11.029 134.335,10.984 134.500 C 10.938 134.665,10.855 134.890,10.800 135.000 C 10.745 135.110,10.655 135.380,10.600 135.600 C 10.545 135.820,10.455 136.090,10.400 136.200 C 10.345 136.310,10.255 136.580,10.200 136.800 C 10.145 137.020,10.055 137.290,10.000 137.400 C 9.945 137.510,9.855 137.780,9.800 138.000 C 9.745 138.220,9.655 138.490,9.600 138.600 C 9.545 138.710,9.455 138.980,9.400 139.200 C 9.345 139.420,9.255 139.690,9.200 139.800 C 9.145 139.910,9.055 140.180,9.000 140.400 C 8.945 140.620,8.864 140.845,8.819 140.900 C 8.775 140.955,8.669 141.270,8.583 141.600 C 8.498 141.930,7.881 144.090,7.212 146.400 C -1.775 177.443,-2.223 216.980,6.048 249.000 C 6.901 252.300,7.697 255.433,7.818 255.962 C 7.939 256.491,8.216 257.256,8.433 257.662 C 8.650 258.068,8.710 258.400,8.565 258.400 C 8.420 258.400,8.526 258.670,8.800 259.000 C 9.074 259.330,9.164 259.600,9.000 259.600 C 8.836 259.600,8.926 259.870,9.200 260.200 C 9.474 260.530,9.564 260.800,9.400 260.800 C 9.236 260.800,9.326 261.070,9.600 261.400 C 9.874 261.730,9.964 262.000,9.800 262.000 C 9.636 262.000,9.726 262.270,10.000 262.600 C 10.274 262.930,10.364 263.200,10.200 263.200 C 10.036 263.200,10.126 263.470,10.400 263.800 C 10.674 264.130,10.764 264.400,10.600 264.400 C 10.436 264.400,10.489 264.625,10.717 264.900 C 10.945 265.175,11.169 265.580,11.214 265.800 C 11.259 266.020,11.429 266.560,11.591 267.000 C 11.753 267.440,12.269 268.835,12.737 270.100 C 13.206 271.365,13.456 272.403,13.294 272.406 C 13.132 272.409,13.192 272.544,13.428 272.706 C 13.975 273.082,15.291 276.398,14.897 276.406 C 14.734 276.409,14.807 276.544,15.060 276.706 C 15.313 276.868,15.583 277.360,15.660 277.800 C 15.737 278.240,15.911 278.690,16.047 278.800 C 16.182 278.910,16.881 280.350,17.600 282.000 C 19.126 285.504,24.215 295.622,26.050 298.800 C 26.749 300.010,27.518 301.363,27.760 301.806 C 28.002 302.249,28.605 303.177,29.100 303.867 C 29.595 304.558,30.000 305.306,30.000 305.528 C 30.000 305.751,30.135 305.993,30.300 306.067 C 30.465 306.140,31.950 308.258,33.600 310.774 C 43.807 326.337,59.689 343.834,73.900 355.173 C 77.035 357.674,79.600 359.903,79.600 360.127 C 79.600 360.350,79.719 360.414,79.865 360.269 C 80.010 360.123,80.775 360.497,81.565 361.100 C 83.600 362.654,94.448 370.000,94.708 370.000 C 94.827 370.000,95.481 370.421,96.162 370.935 C 98.026 372.342,105.503 376.416,111.800 379.454 C 114.880 380.941,117.510 382.317,117.645 382.512 C 117.779 382.708,117.959 382.824,118.045 382.770 C 118.331 382.589,121.200 383.658,121.200 383.946 C 121.200 384.102,121.589 384.259,122.064 384.295 C 122.539 384.331,123.034 384.504,123.164 384.680 C 123.294 384.856,123.760 385.063,124.200 385.140 C 124.640 385.217,125.090 385.397,125.200 385.540 C 125.310 385.683,125.760 385.863,126.200 385.940 C 126.640 386.017,127.132 386.287,127.294 386.540 C 127.456 386.793,127.591 386.868,127.594 386.706 C 127.599 386.448,130.150 387.275,133.200 388.524 C 133.750 388.749,134.290 388.964,134.400 389.001 C 134.510 389.038,134.901 389.202,135.269 389.365 C 135.637 389.528,136.177 389.711,136.469 389.770 C 136.761 389.830,137.301 390.010,137.669 390.170 C 138.037 390.331,138.667 390.524,139.069 390.600 C 139.471 390.676,139.800 390.766,139.800 390.800 C 139.800 390.834,140.070 390.933,140.400 391.020 C 140.730 391.107,142.530 391.646,144.400 392.218 C 176.845 402.134,220.528 402.362,253.600 392.788 C 255.910 392.119,258.070 391.502,258.400 391.417 C 258.730 391.331,259.000 391.234,259.000 391.201 C 259.000 391.168,259.380 391.069,259.845 390.981 C 260.310 390.893,261.210 390.609,261.845 390.350 C 262.480 390.090,263.326 389.815,263.725 389.738 C 264.123 389.661,265.203 389.261,266.125 388.850 C 269.054 387.543,272.400 386.401,272.406 386.706 C 272.409 386.868,272.544 386.816,272.706 386.592 C 273.145 385.983,275.205 385.156,275.630 385.419 C 275.833 385.544,276.000 385.446,276.000 385.200 C 276.000 384.954,276.165 384.855,276.366 384.979 C 276.567 385.103,276.792 385.040,276.866 384.839 C 276.940 384.638,277.360 384.412,277.800 384.337 C 278.240 384.261,278.690 384.089,278.800 383.953 C 278.910 383.818,280.350 383.119,282.000 382.400 C 286.407 380.481,296.538 375.368,299.506 373.565 C 300.922 372.704,302.184 372.000,302.309 372.000 C 302.435 372.000,302.822 371.742,303.169 371.428 C 303.517 371.113,304.251 370.617,304.801 370.325 C 305.350 370.033,308.590 367.906,312.000 365.599 C 315.410 363.291,318.335 361.447,318.500 361.502 C 318.665 361.556,318.800 361.447,318.800 361.260 C 318.800 361.073,320.645 359.501,322.900 357.766 C 340.024 344.594,362.409 319.591,370.321 304.801 C 370.615 304.251,371.086 303.531,371.368 303.201 C 372.699 301.641,379.737 288.118,382.400 282.000 C 383.119 280.350,383.818 278.910,383.953 278.800 C 384.089 278.690,384.263 278.240,384.340 277.800 C 384.417 277.360,384.687 276.868,384.940 276.706 C 385.193 276.544,385.266 276.409,385.103 276.406 C 384.709 276.398,386.025 273.082,386.572 272.706 C 386.808 272.544,386.868 272.409,386.706 272.406 C 386.401 272.400,387.543 269.054,388.850 266.125 C 389.261 265.203,389.661 264.123,389.738 263.725 C 389.815 263.326,390.090 262.480,390.350 261.845 C 390.609 261.210,390.893 260.310,390.981 259.845 C 391.069 259.380,391.168 259.000,391.201 259.000 C 391.234 259.000,391.331 258.730,391.417 258.400 C 391.502 258.070,392.119 255.910,392.788 253.600 C 399.506 230.394,401.630 200.455,398.378 174.800 C 396.937 163.426,393.568 147.416,391.519 142.200 C 391.086 141.100,390.748 140.155,390.766 140.100 C 390.785 140.045,390.786 139.955,390.769 139.900 C 390.753 139.845,390.676 139.471,390.600 139.069 C 390.524 138.667,390.331 138.037,390.170 137.669 C 390.010 137.301,389.830 136.761,389.770 136.469 C 389.711 136.177,389.528 135.637,389.365 135.269 C 389.202 134.901,389.038 134.510,389.001 134.400 C 388.964 134.290,388.749 133.750,388.524 133.200 C 387.275 130.150,386.448 127.599,386.706 127.594 C 386.868 127.591,386.808 127.456,386.572 127.294 C 386.025 126.918,384.709 123.602,385.103 123.594 C 385.266 123.591,385.166 123.439,384.880 123.258 C 384.594 123.076,384.331 122.539,384.295 122.064 C 384.259 121.589,384.102 121.200,383.946 121.200 C 383.700 121.200,382.960 119.384,382.724 118.200 C 382.681 117.980,382.497 117.620,382.317 117.400 C 382.138 117.180,380.758 114.480,379.251 111.400 C 377.744 108.320,375.653 104.270,374.603 102.400 C 373.554 100.530,372.494 98.637,372.248 98.194 C 372.001 97.751,371.395 96.823,370.900 96.133 C 370.405 95.442,370.000 94.790,370.000 94.684 C 370.000 94.442,362.573 83.494,361.100 81.565 C 360.497 80.775,360.123 80.010,360.269 79.865 C 360.414 79.719,360.350 79.600,360.127 79.600 C 359.903 79.600,357.674 77.035,355.172 73.900 C 347.255 63.979,333.132 50.145,322.700 42.091 C 320.555 40.435,318.800 38.927,318.800 38.740 C 318.800 38.553,318.665 38.443,318.500 38.496 C 318.163 38.605,306.275 30.768,306.067 30.300 C 305.993 30.135,305.740 30.000,305.504 30.000 C 305.269 30.000,304.519 29.582,303.838 29.071 C 303.157 28.559,302.330 28.023,302.000 27.880 C 301.670 27.736,300.500 27.076,299.400 26.414 C 296.638 24.750,285.642 19.178,282.000 17.596 C 280.350 16.880,278.910 16.182,278.800 16.047 C 278.690 15.911,278.240 15.737,277.800 15.660 C 277.360 15.583,276.890 15.343,276.755 15.126 C 276.621 14.909,276.396 14.747,276.255 14.766 C 275.385 14.882,274.793 14.739,274.329 14.300 C 274.038 14.025,273.620 13.790,273.400 13.778 C 272.405 13.722,270.800 13.077,270.800 12.733 C 270.800 12.524,270.639 12.452,270.442 12.574 C 270.246 12.695,269.481 12.552,268.742 12.256 C 268.004 11.960,267.040 11.572,266.600 11.394 C 266.160 11.215,265.665 11.031,265.500 10.985 C 265.335 10.938,265.110 10.855,265.000 10.800 C 264.890 10.745,264.620 10.655,264.400 10.600 C 264.180 10.545,263.910 10.455,263.800 10.400 C 263.690 10.345,263.420 10.255,263.200 10.200 C 262.980 10.145,262.710 10.055,262.600 10.000 C 262.490 9.945,262.220 9.855,262.000 9.800 C 261.780 9.745,261.510 9.655,261.400 9.600 C 261.290 9.545,261.020 9.455,260.800 9.400 C 260.580 9.345,260.310 9.255,260.200 9.200 C 260.090 9.145,259.865 9.075,259.700 9.044 C 259.535 9.013,259.175 8.845,258.900 8.670 C 258.625 8.496,258.400 8.460,258.400 8.590 C 258.400 8.721,258.068 8.650,257.662 8.433 C 257.256 8.216,256.491 7.935,255.962 7.809 C 255.433 7.682,252.294 6.886,248.986 6.038 C 229.935 1.158,207.587 -0.849,186.800 0.454 M211.407 16.413 C 221.172 17.045,237.600 19.305,237.600 20.017 C 237.600 20.186,237.960 20.231,238.400 20.116 C 238.853 19.997,239.200 20.104,239.200 20.361 C 239.200 20.646,239.573 20.722,240.200 20.564 C 240.842 20.403,241.200 20.482,241.200 20.784 C 241.200 21.065,241.508 21.156,241.966 21.011 C 242.388 20.877,242.838 20.938,242.967 21.146 C 243.095 21.354,243.561 21.431,244.000 21.316 C 244.440 21.201,244.800 21.291,244.800 21.516 C 244.800 21.741,245.160 21.831,245.600 21.716 C 246.040 21.601,246.400 21.663,246.401 21.853 C 246.401 22.044,246.985 22.241,247.698 22.292 C 248.411 22.342,249.049 22.548,249.116 22.749 C 249.183 22.950,249.590 23.023,250.019 22.911 C 250.449 22.799,250.800 22.888,250.800 23.109 C 250.800 23.330,251.025 23.488,251.300 23.459 C 252.276 23.358,256.000 24.486,256.000 24.883 C 256.000 25.104,256.252 25.189,256.561 25.070 C 256.869 24.952,257.244 24.978,257.394 25.128 C 257.544 25.277,257.832 25.422,258.033 25.450 C 258.235 25.478,258.445 25.536,258.500 25.580 C 258.555 25.624,259.050 25.741,259.600 25.841 C 260.150 25.941,260.657 26.188,260.726 26.389 C 260.795 26.590,261.110 26.656,261.426 26.535 C 261.742 26.414,262.000 26.508,262.000 26.745 C 262.000 26.981,262.270 27.071,262.600 26.945 C 262.930 26.818,263.200 26.914,263.200 27.157 C 263.200 27.401,263.335 27.566,263.500 27.524 C 264.144 27.360,266.400 28.085,266.400 28.455 C 266.400 28.671,266.542 28.759,266.716 28.652 C 266.890 28.544,267.655 28.734,268.416 29.074 C 269.177 29.414,270.340 29.931,271.000 30.223 C 283.408 35.716,298.000 43.433,298.000 44.503 C 298.000 44.740,298.111 44.823,298.246 44.687 C 298.381 44.552,300.136 45.547,302.146 46.898 C 324.195 61.724,343.769 82.189,357.477 104.748 C 361.452 111.289,369.600 127.579,369.600 128.983 C 369.600 129.322,369.780 129.600,370.000 129.600 C 370.220 129.600,370.400 130.035,370.400 130.567 C 370.400 131.098,370.588 131.596,370.818 131.673 C 371.048 131.749,371.266 132.214,371.303 132.706 C 371.340 133.198,371.498 133.600,371.653 133.600 C 371.944 133.600,372.613 135.960,372.476 136.500 C 372.434 136.665,372.599 136.800,372.843 136.800 C 373.086 136.800,373.182 137.070,373.055 137.400 C 372.929 137.730,373.019 138.000,373.255 138.000 C 373.492 138.000,373.586 138.258,373.465 138.574 C 373.344 138.890,373.410 139.205,373.611 139.274 C 373.812 139.343,374.037 139.800,374.111 140.290 C 374.185 140.779,374.358 141.292,374.495 141.429 C 374.633 141.566,374.648 141.931,374.530 142.239 C 374.411 142.548,374.489 142.800,374.701 142.800 C 375.139 142.800,376.477 147.152,376.184 147.625 C 376.080 147.794,376.200 148.000,376.451 148.084 C 376.701 148.167,376.928 148.812,376.953 149.517 C 376.979 150.222,377.156 150.799,377.347 150.799 C 377.537 150.800,377.599 151.160,377.484 151.600 C 377.369 152.040,377.457 152.400,377.680 152.400 C 377.903 152.400,377.982 152.670,377.855 153.000 C 377.729 153.330,377.819 153.600,378.056 153.600 C 378.316 153.600,378.387 153.997,378.236 154.600 C 378.083 155.207,378.156 155.600,378.419 155.600 C 378.672 155.600,378.748 155.935,378.600 156.400 C 378.444 156.893,378.528 157.200,378.820 157.200 C 379.096 157.200,379.206 157.533,379.084 158.000 C 378.969 158.440,379.008 158.800,379.170 158.800 C 379.816 158.800,382.317 173.882,383.268 183.503 C 384.021 191.129,383.894 210.745,383.040 218.600 C 382.143 226.844,380.113 238.961,379.600 239.133 C 379.381 239.206,379.311 239.701,379.444 240.233 C 379.581 240.780,379.510 241.200,379.281 241.200 C 379.058 241.200,378.969 241.560,379.084 242.000 C 379.206 242.467,379.096 242.800,378.820 242.800 C 378.528 242.800,378.444 243.107,378.600 243.600 C 378.740 244.040,378.698 244.400,378.507 244.400 C 378.316 244.400,378.160 245.063,378.160 245.873 C 378.160 246.684,377.963 247.412,377.722 247.493 C 377.482 247.573,377.377 247.990,377.489 248.419 C 377.601 248.849,377.537 249.200,377.347 249.201 C 377.156 249.201,376.979 249.778,376.953 250.483 C 376.928 251.188,376.701 251.833,376.451 251.916 C 376.200 252.000,376.080 252.206,376.184 252.375 C 376.439 252.787,375.167 257.200,374.794 257.200 C 374.632 257.200,374.500 257.688,374.500 258.283 C 374.500 258.879,374.308 259.431,374.072 259.509 C 373.837 259.588,373.744 259.910,373.865 260.226 C 373.986 260.542,373.892 260.800,373.655 260.800 C 373.419 260.800,373.329 261.070,373.455 261.400 C 373.582 261.730,373.492 262.000,373.255 262.000 C 373.019 262.000,372.929 262.270,373.055 262.600 C 373.182 262.930,373.086 263.200,372.843 263.200 C 372.599 263.200,372.434 263.335,372.476 263.500 C 372.613 264.040,371.944 266.400,371.653 266.400 C 371.498 266.400,371.340 266.802,371.303 267.294 C 371.266 267.786,371.048 268.251,370.818 268.327 C 370.588 268.404,370.400 268.829,370.400 269.272 C 370.400 269.714,370.143 270.554,369.828 271.138 C 369.513 271.722,368.771 273.280,368.179 274.600 C 364.621 282.528,357.257 296.286,355.780 297.762 C 355.430 298.113,355.291 298.406,355.471 298.413 C 355.652 298.420,355.451 298.690,355.024 299.013 C 354.596 299.336,354.378 299.600,354.538 299.600 C 355.164 299.600,349.031 308.146,342.839 315.903 L 338.605 321.205 208.742 191.342 L 78.878 61.478 80.939 59.705 C 85.904 55.434,101.600 43.972,101.600 44.616 C 101.600 44.749,101.876 44.581,102.213 44.244 C 103.847 42.610,118.731 34.715,126.000 31.627 C 127.650 30.926,129.450 30.162,130.000 29.928 C 130.550 29.694,131.495 29.244,132.100 28.929 C 132.705 28.613,133.200 28.459,133.200 28.587 C 133.200 28.714,133.611 28.549,134.113 28.220 C 134.616 27.891,135.471 27.540,136.013 27.440 C 136.556 27.341,137.090 27.225,137.200 27.182 C 137.310 27.140,137.535 27.127,137.700 27.153 C 137.865 27.179,138.000 27.001,138.000 26.757 C 138.000 26.514,138.270 26.418,138.600 26.545 C 138.930 26.671,139.200 26.615,139.200 26.419 C 139.200 26.054,141.514 25.371,142.163 25.545 C 142.363 25.598,142.633 25.472,142.763 25.265 C 143.063 24.786,147.192 23.548,147.615 23.809 C 147.789 23.917,148.000 23.800,148.084 23.549 C 148.167 23.299,148.812 23.072,149.517 23.047 C 150.222 23.021,150.799 22.844,150.799 22.653 C 150.800 22.463,151.160 22.401,151.600 22.516 C 152.040 22.631,152.400 22.543,152.400 22.320 C 152.400 22.097,152.664 22.016,152.987 22.140 C 153.310 22.264,153.685 22.186,153.821 21.966 C 153.956 21.747,154.412 21.677,154.834 21.811 C 155.281 21.953,155.600 21.865,155.600 21.600 C 155.600 21.328,155.921 21.248,156.400 21.400 C 156.879 21.552,157.200 21.472,157.200 21.200 C 157.200 20.928,157.521 20.848,158.000 21.000 C 158.493 21.156,158.800 21.072,158.800 20.780 C 158.800 20.493,159.187 20.381,159.786 20.495 C 160.328 20.599,160.823 20.536,160.886 20.356 C 161.675 18.083,195.916 15.412,211.407 16.413 M191.583 208.583 C 262.964 279.964,321.284 338.432,321.183 338.512 C 321.082 338.592,319.470 339.919,317.600 341.462 C 310.491 347.326,299.883 354.950,299.444 354.511 C 299.310 354.377,299.200 354.459,299.200 354.694 C 299.200 355.133,298.641 355.500,292.800 358.902 C 289.210 360.992,279.709 365.850,275.000 368.002 C 273.460 368.706,271.722 369.534,271.138 369.841 C 270.554 370.149,269.714 370.400,269.272 370.400 C 268.829 370.400,268.404 370.588,268.327 370.818 C 268.251 371.048,267.786 371.266,267.294 371.303 C 266.802 371.340,266.400 371.498,266.400 371.653 C 266.400 371.944,264.040 372.613,263.500 372.476 C 263.335 372.434,263.200 372.599,263.200 372.843 C 263.200 373.086,262.930 373.182,262.600 373.055 C 262.270 372.929,262.000 373.019,262.000 373.255 C 262.000 373.492,261.742 373.586,261.426 373.465 C 261.110 373.344,260.795 373.394,260.726 373.577 C 260.555 374.028,252.833 376.467,252.407 376.205 C 252.221 376.089,252.006 376.181,251.930 376.409 C 251.854 376.637,251.254 376.863,250.596 376.912 C 249.938 376.960,249.288 377.154,249.150 377.343 C 249.013 377.531,248.367 377.727,247.716 377.778 C 247.065 377.830,246.322 378.001,246.066 378.159 C 245.810 378.318,245.420 378.336,245.200 378.200 C 244.980 378.064,244.800 378.163,244.800 378.420 C 244.800 378.718,244.439 378.796,243.800 378.636 C 243.173 378.478,242.800 378.554,242.800 378.839 C 242.800 379.096,242.453 379.203,242.000 379.084 C 241.560 378.969,241.200 379.059,241.200 379.284 C 241.200 379.509,240.840 379.599,240.400 379.484 C 239.960 379.369,239.600 379.459,239.600 379.684 C 239.600 379.909,239.150 380.007,238.600 379.902 C 238.050 379.797,237.600 379.843,237.600 380.004 C 237.600 380.387,225.719 382.267,218.600 383.010 C 205.992 384.325,189.925 384.157,177.400 382.579 C 170.683 381.733,161.022 380.008,160.886 379.631 C 160.823 379.458,160.328 379.401,159.786 379.505 C 159.187 379.619,158.800 379.507,158.800 379.220 C 158.800 378.928,158.493 378.844,158.000 379.000 C 157.521 379.152,157.200 379.072,157.200 378.800 C 157.200 378.528,156.879 378.448,156.400 378.600 C 155.960 378.740,155.600 378.698,155.600 378.507 C 155.600 378.316,154.937 378.160,154.127 378.160 C 153.316 378.160,152.588 377.963,152.507 377.722 C 152.427 377.482,152.010 377.377,151.581 377.489 C 151.151 377.601,150.800 377.537,150.799 377.347 C 150.799 377.156,150.222 376.979,149.517 376.953 C 148.812 376.928,148.167 376.701,148.084 376.451 C 148.000 376.200,147.779 376.089,147.593 376.205 C 147.167 376.467,139.445 374.028,139.274 373.577 C 139.205 373.394,138.890 373.344,138.574 373.465 C 138.258 373.586,138.000 373.492,138.000 373.255 C 138.000 373.019,137.730 372.929,137.400 373.055 C 137.070 373.182,136.800 373.086,136.800 372.843 C 136.800 372.599,136.665 372.434,136.500 372.476 C 135.960 372.613,133.600 371.944,133.600 371.653 C 133.600 371.498,133.198 371.340,132.706 371.303 C 132.214 371.266,131.749 371.048,131.673 370.818 C 131.596 370.588,131.098 370.400,130.567 370.400 C 130.035 370.400,129.600 370.220,129.600 370.000 C 129.600 369.780,129.319 369.600,128.975 369.600 C 127.134 369.600,104.185 357.728,102.213 355.756 C 101.876 355.419,101.600 355.251,101.600 355.384 C 101.600 356.041,89.331 347.159,82.000 341.195 C 75.252 335.705,63.013 323.258,57.184 315.957 C 52.220 309.738,44.718 299.284,44.790 298.686 C 44.811 298.513,44.548 298.091,44.205 297.748 C 42.662 296.205,34.281 280.511,31.629 274.200 C 31.167 273.100,30.522 271.690,30.195 271.068 C 29.868 270.445,29.600 269.626,29.600 269.248 C 29.600 268.869,29.408 268.368,29.172 268.132 C 28.937 267.897,28.694 267.456,28.632 267.152 C 28.570 266.849,28.238 265.972,27.895 265.204 C 27.552 264.436,27.356 263.671,27.459 263.504 C 27.563 263.337,27.437 263.200,27.181 263.200 C 26.924 263.200,26.818 262.930,26.945 262.600 C 27.071 262.270,27.015 262.000,26.819 262.000 C 26.538 262.000,26.005 260.512,25.816 259.200 C 25.801 259.090,25.675 258.820,25.537 258.600 C 25.027 257.786,23.609 252.710,23.803 252.395 C 23.914 252.215,23.819 252.006,23.591 251.930 C 23.363 251.854,23.137 251.254,23.088 250.596 C 23.040 249.938,22.860 249.296,22.689 249.170 C 22.519 249.043,22.339 248.369,22.289 247.671 C 22.240 246.973,22.044 246.401,21.853 246.401 C 21.663 246.400,21.601 246.040,21.716 245.600 C 21.831 245.161,21.750 244.692,21.535 244.560 C 21.321 244.427,21.240 244.073,21.355 243.772 C 21.471 243.472,21.386 243.115,21.166 242.979 C 20.947 242.844,20.877 242.388,21.011 241.966 C 21.156 241.508,21.065 241.200,20.784 241.200 C 20.486 241.200,20.402 240.845,20.556 240.233 C 20.689 239.701,20.625 239.206,20.412 239.133 C 19.989 238.987,18.357 230.048,17.432 222.800 C 15.839 210.332,15.670 194.293,16.995 181.298 C 17.720 174.181,19.604 162.400,20.017 162.400 C 20.186 162.400,20.231 162.040,20.116 161.600 C 20.001 161.160,20.083 160.800,20.298 160.800 C 20.513 160.800,20.603 160.350,20.498 159.800 C 20.381 159.189,20.491 158.800,20.780 158.800 C 21.072 158.800,21.156 158.493,21.000 158.000 C 20.848 157.521,20.928 157.200,21.200 157.200 C 21.472 157.200,21.552 156.879,21.400 156.400 C 21.248 155.921,21.328 155.600,21.600 155.600 C 21.865 155.600,21.953 155.281,21.811 154.834 C 21.677 154.412,21.747 153.956,21.966 153.821 C 22.186 153.685,22.264 153.310,22.140 152.987 C 22.016 152.664,22.097 152.400,22.320 152.400 C 22.543 152.400,22.631 152.040,22.516 151.600 C 22.401 151.160,22.463 150.800,22.653 150.799 C 22.844 150.799,23.021 150.222,23.047 149.517 C 23.072 148.812,23.299 148.167,23.549 148.084 C 23.800 148.000,23.911 147.779,23.795 147.593 C 23.533 147.167,25.972 139.445,26.423 139.274 C 26.606 139.205,26.656 138.890,26.535 138.574 C 26.414 138.258,26.514 138.000,26.757 138.000 C 27.001 138.000,27.179 137.865,27.153 137.700 C 27.127 137.535,27.140 137.310,27.182 137.200 C 27.225 137.090,27.338 136.574,27.434 136.054 C 27.530 135.534,27.903 134.544,28.262 133.854 C 29.426 131.616,29.600 131.218,29.600 130.785 C 29.600 128.817,43.182 102.501,44.423 102.066 C 44.633 101.992,44.728 101.808,44.634 101.656 C 44.251 101.035,60.736 78.800,61.581 78.800 C 61.702 78.800,120.203 137.203,191.583 208.583 " stroke="none" fill="#040404" fill-rule="evenodd"></path></g></svg>